<svg xmlns="http://www.w3.org/2000/svg" width="495" height="206" viewBox="0 0 495 206" role="img" aria-label="Most Used Languages">
  <rect x="0.5" y="0.5" width="494" height="205" rx="12" fill="#0d1117" stroke="#30363d"/>
  <text x="20" y="31" font-family="'Segoe UI', -apple-system, BlinkMacSystemFont, Roboto, Helvetica, Arial, sans-serif" font-size="15" font-weight="600" fill="#e6edf3">Most Used Languages</text>
    <g>
    <text x="20" y="69" font-family="'Segoe UI', -apple-system, BlinkMacSystemFont, Roboto, Helvetica, Arial, sans-serif" font-size="13" fill="#e6edf3">JavaScript</text>
    <rect x="150" y="60" width="291" height="11" rx="5.5" fill="#21262d"/>
    <rect x="150" y="60" width="106.15384615384616" height="11" rx="5.5" fill="#f1e05a"/>
    <text x="475" y="69" text-anchor="end" font-family="ui-monospace, SFMono-Regular, 'SF Mono', Menlo, Consolas, monospace" font-size="11.5" fill="#9198a1">28.6%</text>
  </g>
  <g>
    <text x="20" y="99" font-family="'Segoe UI', -apple-system, BlinkMacSystemFont, Roboto, Helvetica, Arial, sans-serif" font-size="13" fill="#e6edf3">Python</text>
    <rect x="150" y="90" width="291" height="11" rx="5.5" fill="#21262d"/>
    <rect x="150" y="90" width="92.8846153846154" height="11" rx="5.5" fill="#3572A5"/>
    <text x="475" y="99" text-anchor="end" font-family="ui-monospace, SFMono-Regular, 'SF Mono', Menlo, Consolas, monospace" font-size="11.5" fill="#9198a1">25.0%</text>
  </g>
  <g>
    <text x="20" y="129" font-family="'Segoe UI', -apple-system, BlinkMacSystemFont, Roboto, Helvetica, Arial, sans-serif" font-size="13" fill="#e6edf3">HTML</text>
    <rect x="150" y="120" width="291" height="11" rx="5.5" fill="#21262d"/>
    <rect x="150" y="120" width="79.61538461538461" height="11" rx="5.5" fill="#e34c26"/>
    <text x="475" y="129" text-anchor="end" font-family="ui-monospace, SFMono-Regular, 'SF Mono', Menlo, Consolas, monospace" font-size="11.5" fill="#9198a1">21.4%</text>
  </g>
  <g>
    <text x="20" y="159" font-family="'Segoe UI', -apple-system, BlinkMacSystemFont, Roboto, Helvetica, Arial, sans-serif" font-size="13" fill="#e6edf3">Wolfram Language</text>
    <rect x="150" y="150" width="291" height="11" rx="5.5" fill="#21262d"/>
    <rect x="150" y="150" width="39.80769230769231" height="11" rx="5.5" fill="#dd1100"/>
    <text x="475" y="159" text-anchor="end" font-family="ui-monospace, SFMono-Regular, 'SF Mono', Menlo, Consolas, monospace" font-size="11.5" fill="#9198a1">10.7%</text>
  </g>
  <g>
    <text x="20" y="189" font-family="'Segoe UI', -apple-system, BlinkMacSystemFont, Roboto, Helvetica, Arial, sans-serif" font-size="13" fill="#e6edf3">C++</text>
    <rect x="150" y="180" width="291" height="11" rx="5.5" fill="#21262d"/>
    <rect x="150" y="180" width="26.53846153846154" height="11" rx="5.5" fill="#f34b7d"/>
    <text x="475" y="189" text-anchor="end" font-family="ui-monospace, SFMono-Regular, 'SF Mono', Menlo, Consolas, monospace" font-size="11.5" fill="#9198a1">7.1%</text>
  </g>
</svg>
